{
  "accessors": [
    {
      "bufferView": 2,
      "componentType": 5126,
      "count": 6186,
      "max": [
        1.0279179811477661,
        0.2812870144844055,
        1.98642897605896
      ],
      "min": [
        -1.0279179811477661,
        -0.302606999874115,
        0.8513209819793701
      ],
      "type": "VEC3"
    },
    {
      "bufferView": 2,
      "byteOffset": 74232,
      "componentType": 5126,
      "count": 6186,
      "max": [
        0.9997777342796326,
        0.9999898672103882,
        1.0
      ],
      "min": [
        -0.9997777342796326,
        -0.9999898672103882,
        -1.0
      ],
      "type": "VEC3"
    },
    {
      "bufferView": 1,
      "componentType": 5126,
      "count": 6186,
      "max": [
        0.75,
        0.875
      ],
      "min": [
        0.375,
        0.375
      ],
      "type": "VEC2"
    },
    {
      "bufferView": 0,
      "componentType": 5125,
      "count": 35328,
      "type": "SCALAR"
    },
    {
      "bufferView": 2,
      "byteOffset": 148464,
      "componentType": 5126,
      "count": 2233,
      "max": [
        0.4009529948234558,
        0.2800289988517761,
        1.0063519477844238
      ],
      "min": [
        -0.4009529948234558,
        -0.286206990480423,
        0.13140399754047394
      ],
      "type": "VEC3"
    },
    {
      "bufferView": 2,
      "byteOffset": 175260,
      "componentType": 5126,
      "count": 2233,
      "max": [
        0.9999988079071045,
        0.9998692274093628,
        0.11880522221326828
      ],
      "min": [
        -0.9999988079071045,
        -0.9949018955230713,
        -1.0
      ],
      "type": "VEC3"
    },
    {
      "bufferView": 1,
      "byteOffset": 49488,
      "componentType": 5126,
      "count": 2233,
      "max": [
        0.3833959996700287,
        0.875
      ],
      "min": [
        0.0,
        0.0
      ],
      "type": "VEC2"
    },
    {
      "bufferView": 0,
      "byteOffset": 141312,
      "componentType": 5125,
      "count": 12288,
      "type": "SCALAR"
    },
    {
      "bufferView": 2,
      "byteOffset": 202056,
      "componentType": 5126,
      "count": 1186,
      "max": [
        0.37404000759124756,
        0.08094099909067154,
        0.1479939967393875
      ],
      "min": [
        -0.37404000759124756,
        -0.34853801131248474,
        0.0076299998909235
      ],
      "type": "VEC3"
    },
    {
      "bufferView": 2,
      "byteOffset": 216288,
      "componentType": 5126,
      "count": 1186,
      "max": [
        0.9996159672737122,
        0.983751118183136,
        0.9693467617034912
      ],
      "min": [
        -0.9996159672737122,
        -0.9970647096633911,
        -1.0
      ],
      "type": "VEC3"
    },
    {
      "bufferView": 1,
      "byteOffset": 67352,
      "componentType": 5126,
      "count": 1186,
      "max": [
        0.375,
        0.75
      ],
      "min": [
        0.25,
        0.5
      ],
      "type": "VEC2"
    },
    {
      "bufferView": 0,
      "byteOffset": 190464,
      "componentType": 5125,
      "count": 6912,
      "type": "SCALAR"
    },
    {
      "bufferView": 2,
      "byteOffset": 230520,
      "componentType": 5126,
      "count": 936,
      "max": [
        -0.9934059977531433,
        -0.0035349999088793993,
        1.690379023551941
      ],
      "min": [
        -1.2903729677200317,
        -0.26558101177215576,
        1.4338630437850952
      ],
      "type": "VEC3"
    },
    {
      "bufferView": 2,
      "byteOffset": 241752,
      "componentType": 5126,
      "count": 936,
      "max": [
        0.8910623788833618,
        0.999846875667572,
        0.9999728202819824
      ],
      "min": [
        -0.9990182518959045,
        -0.9996514916419983,
        -0.999684751033783
      ],
      "type": "VEC3"
    },
    {
      "bufferView": 1,
      "byteOffset": 76840,
      "componentType": 5126,
      "count": 936,
      "max": [
        0.7997159957885742,
        0.9247159957885742
      ],
      "min": [
        0.20028500258922577,
        0.0
      ],
      "type": "VEC2"
    },
    {
      "bufferView": 0,
      "byteOffset": 218112,
      "componentType": 5125,
      "count": 4992,
      "type": "SCALAR"
    },
    {
      "bufferView": 2,
      "byteOffset": 252984,
      "componentType": 5126,
      "count": 936,
      "max": [
        1.2903729677200317,
        -0.0035349999088793993,
        1.690379023551941
      ],
      "min": [
        0.9934059977531433,
        -0.26558101177215576,
        1.4338630437850952
      ],
      "type": "VEC3"
    },
    {
      "bufferView": 2,
      "byteOffset": 264216,
      "componentType": 5126,
      "count": 936,
      "max": [
        0.9990182518959045,
        0.999846875667572,
        0.9999728202819824
      ],
      "min": [
        -0.8910623788833618,
        -0.9996514916419983,
        -0.999684751033783
      ],
      "type": "VEC3"
    },
    {
      "bufferView": 1,
      "byteOffset": 84328,
      "componentType": 5126,
      "count": 936,
      "max": [
        0.7997159957885742,
        0.9247159957885742
      ],
      "min": [
        0.20028500258922577,
        0.0
      ],
      "type": "VEC2"
    },
    {
      "bufferView": 0,
      "byteOffset": 238080,
      "componentType": 5125,
      "count": 4992,
      "type": "SCALAR"
    },
    {
      "bufferView": 2,
      "byteOffset": 275448,
      "componentType": 5126,
      "count": 2110,
      "max": [
        0.7193940281867981,
        0.6701580286026001,
        3.1067659854888916
      ],
      "min": [
        -0.7193940281867981,
        -0.6212700009346008,
        1.8708059787750244
      ],
      "type": "VEC3"
    },
    {
      "bufferView": 2,
      "byteOffset": 300768,
      "componentType": 5126,
      "count": 2110,
      "max": [
        0.9996405243873596,
        0.9999814033508301,
        0.9999350309371948
      ],
      "min": [
        -0.9996405243873596,
        -0.9999268054962158,
        -0.9999960660934448
      ],
      "type": "VEC3"
    },
    {
      "bufferView": 1,
      "byteOffset": 91816,
      "componentType": 5126,
      "count": 2110,
      "max": [
        0.75,
        0.875
      ],
      "min": [
        0.25,
        0.625
      ],
      "type": "VEC2"
    },
    {
      "bufferView": 0,
      "byteOffset": 258048,
      "componentType": 5125,
      "count": 12288,
      "type": "SCALAR"
    },
    {
      "bufferView": 2,
      "byteOffset": 326088,
      "componentType": 5126,
      "count": 1394,
      "max": [
        0.8353409767150879,
        0.03728500008583069,
        2.5132579803466797
      ],
      "min": [
        -0.8353409767150879,
        -0.11054699867963791,
        2.2054219245910645
      ],
      "type": "VEC3"
    },
    {
      "bufferView": 2,
      "byteOffset": 342816,
      "componentType": 5126,
      "count": 1394,
      "max": [
        0.9836455583572388,
        0.9996923804283142,
        0.9992632865905762
      ],
      "min": [
        -0.9885143637657166,
        -0.9886669516563416,
        -0.9988052248954773
      ],
      "type": "VEC3"
    },
    {
      "bufferView": 1,
      "byteOffset": 108696,
      "componentType": 5126,
      "count": 1394,
      "max": [
        0.875,
        1.0
      ],
      "min": [
        0.125,
        0.0
      ],
      "type": "VEC2"
    },
    {
      "bufferView": 0,
      "byteOffset": 307200,
      "componentType": 5125,
      "count": 7680,
      "type": "SCALAR"
    },
    {
      "bufferView": 2,
      "byteOffset": 359544,
      "componentType": 5126,
      "count": 125,
      "max": [
        0.07012300193309784,
        -0.5437189936637878,
        2.441351890563965
      ],
      "min": [
        -0.07012300193309784,
        -0.6472330093383789,
        2.337836980819702
      ],
      "type": "VEC3"
    },
    {
      "bufferView": 2,
      "byteOffset": 361044,
      "componentType": 5126,
      "count": 125,
      "max": [
        1.0,
        0.9994553923606873,
        0.9994553923606873
      ],
      "min": [
        -1.0,
        -0.9994553923606873,
        -0.9994553923606873
      ],
      "type": "VEC3"
    },
    {
      "bufferView": 1,
      "byteOffset": 119848,
      "componentType": 5126,
      "count": 125,
      "max": [
        0.875,
        1.0
      ],
      "min": [
        0.125,
        0.0
      ],
      "type": "VEC2"
    },
    {
      "bufferView": 0,
      "byteOffset": 337920,
      "componentType": 5125,
      "count": 576,
      "type": "SCALAR"
    }
  ],
  "asset": {
    "extras": {
      "author": "fdgthctyc (https://sketchfab.com/fdgthctyc)",
      "license": "CC-BY-4.0 (http://creativecommons.org/licenses/by/4.0/)",
      "source": "https://sketchfab.com/3d-models/animal-crossing-character-1f7ef922a93b42259261fb753e922715",
      "title": "Animal Crossing Character"
    },
    "generator": "Sketchfab-15.33.0",
    "version": "2.0"
  },
  "bufferViews": [
    {
      "buffer": 0,
      "byteLength": 340224,
      "name": "floatBufferViews",
      "target": 34963
    },
    {
      "buffer": 0,
      "byteLength": 120848,
      "byteOffset": 340224,
      "byteStride": 8,
      "name": "floatBufferViews",
      "target": 34962
    },
    {
      "buffer": 0,
      "byteLength": 362544,
      "byteOffset": 461072,
      "byteStride": 12,
      "name": "floatBufferViews",
      "target": 34962
    }
  ],
  "buffers": [
    {
      "byteLength": 823616,
      "uri": "scene.bin"
    }
  ],
  "materials": [
    {
      "doubleSided": true,
      "name": "Matriau",
      "pbrMetallicRoughness": {
        "metallicFactor": 0.0,
        "roughnessFactor": 0.6
      }
    },
    {
      "doubleSided": true,
      "name": "Matriau.001",
      "pbrMetallicRoughness": {
        "metallicFactor": 0.0,
        "roughnessFactor": 0.6
      }
    },
    {
      "doubleSided": true,
      "name": "Matriau.002",
      "pbrMetallicRoughness": {
        "metallicFactor": 0.0,
        "roughnessFactor": 0.6
      }
    },
    {
      "doubleSided": true,
      "name": "Matriau.006",
      "pbrMetallicRoughness": {
        "metallicFactor": 0.0,
        "roughnessFactor": 0.6
      }
    },
    {
      "doubleSided": true,
      "name": "Matriau.010",
      "pbrMetallicRoughness": {
        "metallicFactor": 0.0,
        "roughnessFactor": 0.6
      }
    },
    {
      "doubleSided": true,
      "name": "Matriau.011",
      "pbrMetallicRoughness": {
        "metallicFactor": 0.0,
        "roughnessFactor": 0.6
      }
    },
    {
      "doubleSided": true,
      "name": "Matriau.012",
      "pbrMetallicRoughness": {
        "metallicFactor": 0.0,
        "roughnessFactor": 0.6
      }
    },
    {
      "doubleSided": true,
      "name": "Matriau.013",
      "pbrMetallicRoughness": {
        "metallicFactor": 0.0,
        "roughnessFactor": 0.6
      }
    }
  ],
  "meshes": [
    {
      "name": "Object_0",
      "primitives": [
        {
          "attributes": {
            "NORMAL": 1,
            "POSITION": 0,
            "TEXCOORD_0": 2
          },
          "indices": 3,
          "material": 0,
          "mode": 4
        }
      ]
    },
    {
      "name": "Object_1",
      "primitives": [
        {
          "attributes": {
            "NORMAL": 5,
            "POSITION": 4,
            "TEXCOORD_0": 6
          },
          "indices": 7,
          "material": 1,
          "mode": 4
        }
      ]
    },
    {
      "name": "Object_2",
      "primitives": [
        {
          "attributes": {
            "NORMAL": 9,
            "POSITION": 8,
            "TEXCOORD_0": 10
          },
          "indices": 11,
          "material": 2,
          "mode": 4
        }
      ]
    },
    {
      "name": "Object_3",
      "primitives": [
        {
          "attributes": {
            "NORMAL": 13,
            "POSITION": 12,
            "TEXCOORD_0": 14
          },
          "indices": 15,
          "material": 3,
          "mode": 4
        }
      ]
    },
    {
      "name": "Object_4",
      "primitives": [
        {
          "attributes": {
            "NORMAL": 17,
            "POSITION": 16,
            "TEXCOORD_0": 18
          },
          "indices": 19,
          "material": 4,
          "mode": 4
        }
      ]
    },
    {
      "name": "Object_5",
      "primitives": [
        {
          "attributes": {
            "NORMAL": 21,
            "POSITION": 20,
            "TEXCOORD_0": 22
          },
          "indices": 23,
          "material": 5,
          "mode": 4
        }
      ]
    },
    {
      "name": "Object_6",
      "primitives": [
        {
          "attributes": {
            "NORMAL": 25,
            "POSITION": 24,
            "TEXCOORD_0": 26
          },
          "indices": 27,
          "material": 6,
          "mode": 4
        }
      ]
    },
    {
      "name": "Object_7",
      "primitives": [
        {
          "attributes": {
            "NORMAL": 29,
            "POSITION": 28,
            "TEXCOORD_0": 30
          },
          "indices": 31,
          "material": 7,
          "mode": 4
        }
      ]
    }
  ],
  "nodes": [
    {
      "children": [
        1
      ],
      "matrix": [
        1.0,
        0.0,
        0.0,
        0.0,
        0.0,
        2.220446049250313e-16,
        -1.0,
        0.0,
        0.0,
        1.0,
        2.220446049250313e-16,
        0.0,
        0.0,
        0.0,
        0.0,
        1.0
      ],
      "name": "Sketchfab_model"
    },
    {
      "children": [
        2,
        3,
        4,
        5,
        6,
        7,
        8,
        9
      ],
      "name": "Animal crossing character.obj.cleaner.materialmerger.gles"
    },
    {
      "mesh": 0,
      "name": "Object_2"
    },
    {
      "mesh": 1,
      "name": "Object_3"
    },
    {
      "mesh": 2,
      "name": "Object_4"
    },
    {
      "mesh": 3,
      "name": "Object_5"
    },
    {
      "mesh": 4,
      "name": "Object_6"
    },
    {
      "mesh": 5,
      "name": "Object_7"
    },
    {
      "mesh": 6,
      "name": "Object_8"
    },
    {
      "mesh": 7,
      "name": "Object_9"
    }
  ],
  "scene": 0,
  "scenes": [
    {
      "name": "Sketchfab_Scene",
      "nodes": [
        0
      ]
    }
  ]
}
